<svg width="1916" height="1047" viewBox="0 0 1916 1047" fill="none" xmlns="http://www.w3.org/2000/svg">
<g clip-path="url(#clip0)">
<path d="M729.43 797.039L701.347 812.353L718.359 785.693C713.542 782.381 707.581 780.547 701.419 780.48H700.968C699.02 780.513 697.073 780.388 695.152 780.106L685.653 785.304L689.716 778.923C682.987 776.888 677.173 773.076 673.101 768.029L656.107 777.367L666.835 760.528C656.902 750.24 643.501 743.937 628.746 743.937C611.066 743.937 595.317 752.995 585.15 767.126C582.135 771.358 577.872 774.826 572.797 777.177C567.721 779.528 562.013 780.678 556.254 780.511H555.315C535.792 780.511 519.972 799.576 519.972 823.107C519.972 846.639 535.792 865.704 555.315 865.704C559.605 865.692 563.826 864.779 567.614 863.043C574.261 860.264 581.528 858.761 588.914 858.637C596.301 858.514 603.63 859.772 610.397 862.327C616.12 864.528 622.317 865.665 628.584 865.665C634.851 865.665 641.047 864.528 646.77 862.327C653.481 859.82 660.739 858.586 668.052 858.706C675.365 858.827 682.562 860.301 689.157 863.027C692.921 864.72 697.101 865.611 701.347 865.626C720.87 865.626 736.69 846.561 736.69 823.03C736.831 813.979 734.334 805.043 729.43 797.039Z" fill="#E7E7E7"/>
<path opacity="0.03" d="M676.604 859.37C666.406 857.707 655.865 858.693 646.318 862.202C640.6 864.409 634.406 865.549 628.141 865.549C621.876 865.549 615.681 864.409 609.963 862.202C603.199 859.641 595.868 858.378 588.48 858.502C581.092 858.625 573.824 860.132 567.18 862.918C563.384 864.649 559.158 865.562 554.863 865.58C537.525 865.58 523.096 850.514 520.098 830.656C523.567 828.485 526.511 825.752 528.766 822.61C538.934 808.494 554.682 799.436 572.363 799.436C590.043 799.436 605.629 808.307 615.779 822.314C618.808 826.536 623.052 830.011 628.099 832.402C633.146 834.794 638.825 836.02 644.584 835.963H645.036C658.833 835.932 670.789 845.456 676.604 859.37Z" fill="black"/>
<path d="M1522.26 776.807L1494.18 792.121L1511.19 765.461C1506.37 762.149 1500.41 760.315 1494.25 760.248H1493.8C1491.85 760.28 1489.9 760.155 1487.98 759.874L1478.48 765.072L1482.55 758.691C1475.82 756.656 1470 752.844 1465.93 747.797L1448.94 757.135L1459.66 740.295C1449.73 730.008 1436.33 723.705 1421.58 723.705C1403.89 723.705 1388.15 732.763 1377.98 746.894C1374.96 751.126 1370.7 754.594 1365.63 756.945C1360.55 759.296 1354.84 760.446 1349.08 760.279H1348.14C1328.62 760.279 1312.8 779.344 1312.8 802.875C1312.8 826.407 1328.62 845.472 1348.14 845.472C1352.43 845.46 1356.66 844.547 1360.44 842.81C1367.09 840.032 1374.36 838.529 1381.74 838.405C1389.13 838.281 1396.46 839.54 1403.23 842.095C1408.95 844.295 1415.15 845.433 1421.41 845.433C1427.68 845.433 1433.88 844.295 1439.6 842.095C1446.31 839.588 1453.57 838.353 1460.88 838.474C1468.19 838.595 1475.39 840.069 1481.99 842.795C1485.75 844.488 1489.93 845.379 1494.18 845.394C1513.7 845.394 1529.52 826.329 1529.52 802.797C1529.66 793.747 1527.16 784.811 1522.26 776.807Z" fill="#E7E7E7"/>
<path opacity="0.03" d="M1469.43 839.138C1459.23 837.475 1448.69 838.461 1439.15 841.97C1433.43 844.176 1427.23 845.317 1420.97 845.317C1414.7 845.317 1408.51 844.176 1402.79 841.97C1396.03 839.409 1388.7 838.146 1381.31 838.27C1373.92 838.393 1366.65 839.9 1360.01 842.686C1356.21 844.417 1351.99 845.33 1347.69 845.347C1330.35 845.347 1315.92 830.282 1312.93 810.423C1316.39 808.253 1319.34 805.519 1321.59 802.377C1331.76 788.261 1347.51 779.204 1365.19 779.204C1382.87 779.204 1398.46 788.075 1408.61 802.082C1411.64 806.315 1415.9 809.797 1420.97 812.189C1426.03 814.582 1431.73 815.802 1437.5 815.731H1437.95C1451.66 815.699 1463.62 825.224 1469.43 839.138Z" fill="black"/>
<path d="M1522.26 266.333L1494.18 281.647L1511.19 254.988C1506.37 251.675 1500.41 249.841 1494.25 249.774H1493.8C1491.85 249.807 1489.9 249.682 1487.98 249.4L1478.48 254.599L1482.55 248.218C1475.82 246.182 1470 242.37 1465.93 237.323L1448.94 246.661L1459.66 229.822C1449.73 219.535 1436.33 213.232 1421.58 213.232C1403.89 213.232 1388.15 222.289 1377.98 236.421C1374.96 240.653 1370.7 244.12 1365.63 246.471C1360.55 248.822 1354.84 249.973 1349.08 249.805H1348.14C1328.62 249.805 1312.8 268.87 1312.8 292.402C1312.8 315.933 1328.62 334.998 1348.14 334.998C1352.43 334.986 1356.66 334.073 1360.44 332.337C1367.09 329.558 1374.36 328.055 1381.74 327.931C1389.13 327.808 1396.46 329.067 1403.23 331.621C1408.94 333.834 1415.14 334.985 1421.4 334.998C1427.67 335.012 1433.87 333.887 1439.6 331.699C1446.31 329.192 1453.57 327.958 1460.88 328.078C1468.19 328.199 1475.39 329.673 1481.99 332.399C1485.75 334.092 1489.93 334.983 1494.18 334.998C1513.7 334.998 1529.52 315.933 1529.52 292.402C1529.68 283.325 1527.18 274.36 1522.26 266.333Z" fill="#E7E7E7"/>
<path opacity="0.03" d="M1469.43 328.664C1459.23 327.001 1448.69 327.987 1439.15 331.496C1433.43 333.703 1427.23 334.843 1420.97 334.843C1414.7 334.843 1408.51 333.703 1402.79 331.496C1396.03 328.935 1388.7 327.672 1381.31 327.796C1373.92 327.919 1366.65 329.426 1360.01 332.212C1356.21 333.943 1351.99 334.856 1347.69 334.874C1330.35 334.874 1315.92 319.809 1312.93 299.95C1316.39 297.779 1319.34 295.046 1321.59 291.904C1331.76 277.788 1347.51 268.73 1365.19 268.73C1382.87 268.73 1398.46 277.601 1408.61 291.608C1411.64 295.841 1415.9 299.324 1420.97 301.716C1426.03 304.108 1431.73 305.328 1437.5 305.257H1437.95C1451.66 305.226 1463.62 314.75 1469.43 328.664Z" fill="black"/>
<path d="M57.9046 239.411L43.9082 247.052L52.3963 233.761C49.9975 232.1 47.0216 231.179 43.9443 231.147H43.7276C42.754 231.155 41.7813 231.093 40.82 230.96L36.0883 233.543L38.111 230.431C34.7534 229.417 31.8525 227.516 29.8215 224.999L21.3514 229.668L26.7694 221.28C24.5165 218.769 21.642 216.723 18.3553 215.29C15.0686 213.858 11.4524 213.075 7.77041 213C-1.04281 213 -8.89885 217.513 -13.9014 224.563C-15.4071 226.68 -17.5383 228.413 -20.077 229.587C-22.6157 230.76 -25.4706 231.33 -28.3493 231.24H-28.8189C-38.5532 231.24 -46.4453 240.765 -46.4453 252.499C-46.4453 264.234 -38.5532 273.743 -28.8189 273.743C-26.678 273.737 -24.5708 273.283 -22.6785 272.42C-19.3635 271.03 -15.7371 270.277 -12.0509 270.216C-8.36467 270.154 -4.70703 270.784 -1.33178 272.062C1.51096 273.151 4.58724 273.714 7.69815 273.714C10.8091 273.714 13.8853 273.151 16.7281 272.062C20.0764 270.811 23.6982 270.195 27.3474 270.257C30.9965 270.318 34.5875 271.056 37.8762 272.42C39.7525 273.257 41.8317 273.7 43.9443 273.712C53.6786 273.712 61.5707 264.203 61.5707 252.468C61.6392 247.92 60.3785 243.429 57.9046 239.411Z" fill="#E7E7E7"/>
<path opacity="0.03" d="M31.5538 270.506C26.4641 269.666 21.1991 270.16 16.4377 271.922C13.5927 273.005 10.5178 273.567 7.40777 273.572C4.26238 273.571 1.15327 272.993 -1.71247 271.876C-5.08994 270.603 -8.74787 269.977 -12.4335 270.041C-16.1191 270.106 -19.7445 270.859 -23.0593 272.249C-24.9451 273.112 -27.0464 273.566 -29.1816 273.572C-37.8322 273.572 -45.0381 266.055 -46.5371 256.157C-44.8115 255.066 -43.3409 253.704 -42.2027 252.142C-37.146 245.091 -29.2899 240.578 -20.5309 240.578C-11.7718 240.578 -3.95189 245.045 1.14099 252.002C2.65875 254.117 4.78849 255.856 7.32135 257.048C9.85421 258.241 12.7032 258.845 15.5889 258.803H15.8237C22.6322 258.803 28.6462 263.565 31.5538 270.506Z" fill="black"/>
<path d="M1760.43 951.411L1746.43 959.052L1754.92 945.761C1752.52 944.1 1749.55 943.179 1746.47 943.147H1746.25C1745.28 943.155 1744.31 943.093 1743.34 942.96L1738.61 945.543L1740.64 942.431C1737.28 941.417 1734.38 939.516 1732.35 936.999L1723.88 941.668L1729.29 933.28C1727.04 930.769 1724.17 928.723 1720.88 927.29C1717.59 925.858 1713.98 925.075 1710.29 925C1701.48 925 1693.63 929.513 1688.62 936.563C1687.12 938.68 1684.99 940.413 1682.45 941.586C1679.91 942.76 1677.05 943.33 1674.18 943.24H1673.71C1663.97 943.24 1656.08 952.765 1656.08 964.499C1656.08 976.234 1663.97 985.743 1673.71 985.743C1675.85 985.737 1677.95 985.283 1679.85 984.42C1683.16 983.029 1686.79 982.277 1690.47 982.215C1694.16 982.154 1697.82 982.784 1701.19 984.062C1704.04 985.151 1707.11 985.714 1710.22 985.714C1713.33 985.714 1716.41 985.151 1719.25 984.062C1722.6 982.81 1726.22 982.195 1729.87 982.256C1733.52 982.318 1737.11 983.056 1740.4 984.42C1742.28 985.257 1744.36 985.699 1746.47 985.712C1756.2 985.712 1764.1 976.203 1764.1 964.468C1764.16 959.92 1762.9 955.429 1760.43 951.411Z" fill="#E7E7E7"/>
<path opacity="0.03" d="M1734.08 982.506C1728.99 981.666 1723.73 982.159 1718.96 983.922C1716.12 985.005 1713.04 985.567 1709.93 985.572C1706.79 985.571 1703.68 984.993 1700.81 983.876C1697.44 982.603 1693.78 981.977 1690.09 982.041C1686.41 982.106 1682.78 982.859 1679.47 984.249C1677.58 985.112 1675.48 985.566 1673.35 985.572C1664.7 985.572 1657.49 978.055 1655.99 968.157C1657.72 967.066 1659.19 965.703 1660.32 964.142C1665.38 957.091 1673.24 952.578 1682 952.578C1690.76 952.578 1698.58 957.045 1703.67 964.001C1705.19 966.117 1707.32 967.856 1709.85 969.048C1712.38 970.241 1715.23 970.845 1718.12 970.803H1718.35C1725.16 970.803 1731.17 975.565 1734.08 982.506Z" fill="black"/>
<path d="M386.644 550.411L372.648 558.052L381.136 544.761C378.737 543.1 375.761 542.179 372.684 542.147H372.467C371.493 542.155 370.521 542.093 369.559 541.96L364.828 544.543L366.85 541.431C363.493 540.417 360.592 538.516 358.561 535.999L350.091 540.668L355.509 532.28C353.256 529.769 350.381 527.723 347.095 526.29C343.808 524.858 340.192 524.075 336.51 524C327.697 524 319.841 528.513 314.838 535.563C313.332 537.68 311.201 539.413 308.662 540.586C306.124 541.76 303.269 542.33 300.39 542.24H299.92C290.186 542.24 282.294 551.765 282.294 563.499C282.294 575.234 290.186 584.743 299.92 584.743C302.061 584.737 304.168 584.283 306.061 583.42C309.376 582.029 313.002 581.277 316.688 581.215C320.375 581.154 324.032 581.784 327.408 583.062C330.25 584.151 333.327 584.714 336.437 584.714C339.548 584.714 342.625 584.151 345.467 583.062C348.816 581.81 352.438 581.195 356.087 581.256C359.736 581.318 363.327 582.056 366.616 583.42C368.492 584.257 370.571 584.699 372.684 584.712C382.418 584.712 390.31 575.203 390.31 563.468C390.379 558.92 389.118 554.429 386.644 550.411Z" fill="#E7E7E7"/>
<path opacity="0.03" d="M360.296 581.506C355.206 580.666 349.941 581.159 345.18 582.922C342.335 584.005 339.26 584.567 336.15 584.572C333.004 584.571 329.895 583.993 327.03 582.876C323.652 581.603 319.994 580.977 316.309 581.041C312.623 581.106 308.998 581.859 305.683 583.249C303.797 584.112 301.696 584.566 299.561 584.572C290.91 584.572 283.704 577.055 282.205 567.157C283.931 566.066 285.401 564.703 286.539 563.142C291.596 556.091 299.452 551.578 308.211 551.578C316.97 551.578 324.79 556.045 329.883 563.001C331.401 565.117 333.53 566.856 336.063 568.048C338.596 569.241 341.445 569.845 344.331 569.803H344.566C351.374 569.803 357.388 574.565 360.296 581.506Z" fill="black"/>
<path d="M308.599 1012.76L294.603 1020.4L303.091 1007.11C300.692 1005.45 297.716 1004.53 294.639 1004.5H294.422C293.448 1004.51 292.476 1004.44 291.514 1004.31L286.783 1006.89L288.805 1003.78C285.448 1002.77 282.547 1000.87 280.516 998.349L272.046 1003.02L277.464 994.63C275.211 992.119 272.336 990.073 269.05 988.64C265.763 987.208 262.147 986.426 258.465 986.35C249.652 986.35 241.796 990.863 236.793 997.914C235.287 1000.03 233.156 1001.76 230.617 1002.94C228.079 1004.11 225.224 1004.68 222.345 1004.59H221.875C212.141 1004.59 204.249 1014.11 204.249 1025.85C204.249 1037.58 212.141 1047.09 221.875 1047.09C224.016 1047.09 226.124 1046.63 228.016 1045.77C231.331 1044.38 234.957 1043.63 238.644 1043.57C242.33 1043.5 245.987 1044.13 249.363 1045.41C252.205 1046.5 255.282 1047.06 258.393 1047.06C261.504 1047.06 264.58 1046.5 267.423 1045.41C270.771 1044.16 274.393 1043.54 278.042 1043.61C281.691 1043.67 285.282 1044.41 288.571 1045.77C290.447 1046.61 292.526 1047.05 294.639 1047.06C304.373 1047.06 312.265 1037.55 312.265 1025.82C312.334 1021.27 311.073 1016.78 308.599 1012.76Z" fill="#E7E7E7"/>
<path opacity="0.03" d="M282.249 1043.86C277.159 1043.02 271.894 1043.51 267.133 1045.27C264.288 1046.36 261.213 1046.92 258.103 1046.92C254.958 1046.92 251.849 1046.34 248.983 1045.23C245.605 1043.95 241.947 1043.33 238.262 1043.39C234.576 1043.46 230.951 1044.21 227.636 1045.6C225.75 1046.46 223.649 1046.92 221.514 1046.92C212.863 1046.92 205.657 1039.41 204.158 1029.51C205.884 1028.42 207.354 1027.05 208.493 1025.49C213.549 1018.44 221.405 1013.93 230.164 1013.93C238.923 1013.93 246.743 1018.39 251.836 1025.35C253.354 1027.47 255.484 1029.21 258.017 1030.4C260.55 1031.59 263.399 1032.2 266.284 1032.15H266.519C273.328 1032.15 279.341 1036.92 282.249 1043.86Z" fill="black"/>
<path d="M955.179 53.1185L927.096 68.4327L944.108 41.7729C939.291 38.4607 933.331 36.6261 927.168 36.5592H926.717C924.769 36.592 922.822 36.467 920.902 36.1857L911.402 41.3838L915.466 35.0029C908.736 32.9673 902.922 29.1552 898.85 24.1086L881.856 33.4466L892.584 16.6072C882.651 6.31988 869.25 0.0167694 854.495 0.0167694C836.815 0.0167694 821.066 9.07455 810.899 23.206C807.884 27.4377 803.621 30.9056 798.546 33.2566C793.47 35.6077 787.762 36.7579 782.003 36.5903H781.064C761.541 36.5903 745.721 55.6553 745.721 79.1869C745.721 102.718 761.541 121.783 781.064 121.783C785.354 121.772 789.575 120.858 793.363 119.122C800.01 116.343 807.277 114.84 814.663 114.717C822.05 114.593 829.379 115.852 836.147 118.406C841.863 120.619 848.056 121.77 854.323 121.783C860.59 121.797 866.79 120.673 872.519 118.484C879.23 115.977 886.488 114.743 893.801 114.864C901.114 114.984 908.311 116.458 914.906 119.184C918.67 120.877 922.85 121.768 927.096 121.783C946.619 121.783 962.439 102.718 962.439 79.1869C962.595 70.1102 960.098 61.1456 955.179 53.1185Z" fill="#E7E7E7"/>
<path opacity="0.03" d="M902.353 115.448C892.154 113.785 881.613 114.771 872.066 118.28C866.348 120.487 860.154 121.627 853.889 121.627C847.624 121.627 841.43 120.487 835.712 118.28C828.947 115.719 821.616 114.456 814.228 114.58C806.84 114.703 799.572 116.21 792.928 118.996C789.132 120.727 784.906 121.64 780.611 121.658C763.273 121.658 748.844 106.592 745.846 86.7338C749.315 84.5628 752.259 81.8298 754.514 78.6876C764.682 64.5718 780.43 55.514 798.111 55.514C815.792 55.514 831.377 64.385 841.527 78.3919C844.564 82.6251 848.822 86.1076 853.886 88.4998C858.951 90.8919 864.648 92.112 870.423 92.0409H870.874C884.582 92.0097 896.537 101.534 902.353 115.448Z" fill="black"/>
<path d="M1912.32 320.198L1898.32 327.839L1906.81 314.548C1904.41 312.887 1901.43 311.966 1898.36 311.934H1898.14C1897.17 311.942 1896.19 311.88 1895.23 311.747L1890.5 314.33L1892.52 311.218C1889.17 310.204 1886.26 308.303 1884.23 305.786L1875.76 310.455L1881.18 302.067C1878.93 299.556 1876.05 297.509 1872.77 296.077C1869.48 294.645 1865.86 293.862 1862.18 293.787C1853.37 293.787 1845.51 298.3 1840.51 305.35C1839.01 307.467 1836.87 309.2 1834.34 310.373C1831.8 311.547 1828.94 312.117 1826.06 312.027H1825.59C1815.86 312.027 1807.97 321.552 1807.97 333.286C1807.97 345.021 1815.86 354.53 1825.59 354.53C1827.73 354.524 1829.84 354.07 1831.73 353.207C1835.05 351.817 1838.68 351.064 1842.36 351.002C1846.05 350.941 1849.71 351.571 1853.08 352.849C1855.92 353.938 1859 354.501 1862.11 354.501C1865.22 354.501 1868.3 353.938 1871.14 352.849C1874.49 351.598 1878.11 350.982 1881.76 351.043C1885.41 351.105 1889 351.843 1892.29 353.207C1894.16 354.044 1896.24 354.487 1898.36 354.499C1908.09 354.499 1915.98 344.99 1915.98 333.255C1916.05 328.707 1914.79 324.216 1912.32 320.198Z" fill="#E7E7E7"/>
<path opacity="0.03" d="M1885.97 351.293C1880.88 350.453 1875.61 350.946 1870.85 352.709C1868.01 353.792 1864.93 354.354 1861.82 354.359C1858.71 354.347 1855.63 353.769 1852.79 352.663C1849.41 351.39 1845.76 350.764 1842.07 350.828C1838.38 350.893 1834.76 351.646 1831.44 353.036C1829.56 353.899 1827.46 354.353 1825.32 354.359C1816.67 354.359 1809.47 346.842 1807.97 336.944C1809.69 335.853 1811.16 334.49 1812.3 332.929C1817.36 325.878 1825.21 321.365 1833.97 321.365C1842.73 321.365 1850.55 325.832 1855.64 332.788C1857.15 334.892 1859.27 336.624 1861.79 337.816C1864.3 339.008 1867.13 339.619 1870 339.59H1870.24C1877.05 339.59 1883.06 344.352 1885.97 351.293Z" fill="black"/>
</g>
<defs>
<clipPath id="clip0">
<rect width="1920" height="1047" fill="white" transform="translate(-4)"/>
</clipPath>
</defs>
</svg>
