<svg width="136" height="136" viewBox="0 0 136 136" fill="none" xmlns="http://www.w3.org/2000/svg">
<path d="M72.5906 73.6665H22.6673C19.6615 73.6665 16.7789 74.8605 14.6534 76.9859C12.528 79.1113 11.334 81.994 11.334 84.9998V93.4998L11.3623 94.8031C12.269 113.582 32.7426 119 48.1673 119C54.004 119 60.5716 118.223 66.5216 116.24C63.7622 110.973 62.325 105.113 62.334 99.1665C62.334 89.2725 66.2383 80.2851 72.5906 73.6665ZM73.6673 36.8331C73.6673 30.0701 70.9807 23.5841 66.1985 18.8019C61.4164 14.0197 54.9303 11.3331 48.1673 11.3331C41.4043 11.3331 34.9183 14.0197 30.1361 18.8019C25.3539 23.5841 22.6673 30.0701 22.6673 36.8331C22.6673 43.5961 25.3539 50.0822 30.1361 54.8643C34.9183 59.6465 41.4043 62.3331 48.1673 62.3331C54.9303 62.3331 61.4164 59.6465 66.1985 54.8643C70.9807 50.0822 73.6673 43.5961 73.6673 36.8331ZM119.001 42.4998C119.001 37.2397 116.911 32.195 113.192 28.4755C109.472 24.756 104.427 22.6665 99.1673 22.6665C93.9072 22.6665 88.8625 24.756 85.143 28.4755C81.4236 32.195 79.334 37.2397 79.334 42.4998C79.334 47.7599 81.4236 52.8046 85.143 56.5241C88.8625 60.2435 93.9072 62.3331 99.1673 62.3331C104.427 62.3331 109.472 60.2435 113.192 56.5241C116.911 52.8046 119.001 47.7599 119.001 42.4998ZM130.334 99.1665C130.334 107.432 127.05 115.36 121.205 121.205C115.361 127.05 107.433 130.333 99.1673 130.333C90.9014 130.333 82.974 127.05 77.1292 121.205C71.2843 115.36 68.0006 107.432 68.0006 99.1665C68.0006 90.9006 71.2843 82.9732 77.1292 77.1283C82.974 71.2834 90.9014 67.9998 99.1673 67.9998C107.433 67.9998 115.361 71.2834 121.205 77.1283C127.05 82.9732 130.334 90.9006 130.334 99.1665ZM118.173 85.8271C117.91 85.5633 117.597 85.3539 117.253 85.2111C116.909 85.0683 116.54 84.9947 116.167 84.9947C115.795 84.9947 115.426 85.0683 115.081 85.2111C114.737 85.3539 114.424 85.5633 114.161 85.8271L93.5006 106.493L84.1733 97.1605C83.6413 96.6284 82.9197 96.3296 82.1673 96.3296C81.4149 96.3296 80.6933 96.6284 80.1613 97.1605C79.6293 97.6925 79.3304 98.4141 79.3304 99.1665C79.3304 99.9189 79.6293 100.64 80.1613 101.172L91.4946 112.506C91.7578 112.77 92.0705 112.979 92.4147 113.122C92.7589 113.265 93.128 113.338 93.5006 113.338C93.8733 113.338 94.2423 113.265 94.5866 113.122C94.9308 112.979 95.2434 112.77 95.5066 112.506L118.173 89.8391C118.437 89.5759 118.647 89.2633 118.789 88.9191C118.932 88.5748 119.006 88.2058 119.006 87.8331C119.006 87.4604 118.932 87.0914 118.789 86.7472C118.647 86.403 118.437 86.0903 118.173 85.8271Z" fill="#011E56"/>
</svg>
