<svg width="197" height="1000" viewBox="0 0 197 1000" fill="none" xmlns="http://www.w3.org/2000/svg">
<path d="M113.376 899.608V924.952H228V981.688H113.376V999.256H66.432V981.688H64.992C44.256 981.688 28.416 975.64 17.472 963.544C6.33599 951.256 0.76799 933.688 0.76799 910.84C0.76799 906.232 0.863989 902.68 1.05599 900.184H49.152C48.96 901.72 48.864 903.832 48.864 906.52C48.864 912.664 50.304 917.176 53.184 920.056C55.872 922.936 60.288 924.568 66.432 924.952V899.608H113.376ZM14.88 822.986H228V879.434H14.88L14.88 822.986ZM147.072 800.057C130.368 800.057 115.776 797.081 103.296 791.129C90.816 784.985 81.216 776.729 74.496 766.361C67.776 755.801 64.416 744.089 64.416 731.225C64.416 720.089 66.624 710.489 71.04 702.425C75.456 694.361 81.408 688.121 88.896 683.705H66.432V627.257H228V683.705H205.536C213.024 688.121 218.976 694.457 223.392 702.713C227.808 710.777 230.016 720.281 230.016 731.225C230.016 744.089 226.656 755.801 219.936 766.361C213.216 776.729 203.616 784.985 191.136 791.129C178.464 797.081 163.776 800.057 147.072 800.057ZM147.072 683.705C136.704 683.705 128.544 686.585 122.592 692.345C116.64 697.913 113.664 704.825 113.664 713.081C113.664 721.529 116.64 728.537 122.592 734.105C128.352 739.673 136.512 742.457 147.072 742.457C157.44 742.457 165.696 739.673 171.84 734.105C177.792 728.537 180.768 721.529 180.768 713.081C180.768 704.825 177.792 697.913 171.84 692.345C165.888 686.585 157.632 683.705 147.072 683.705ZM66.432 421.139L304.896 523.667V585.011L221.088 546.419L66.432 612.659V549.875L158.016 515.891L66.432 483.059V421.139ZM145.344 252.004C149.76 252.004 154.176 252.292 158.592 252.868V359.716C167.424 359.14 174.048 356.74 178.464 352.516C182.688 348.1 184.8 342.532 184.8 335.812C184.8 326.404 180.576 319.684 172.128 315.652V255.46C183.264 257.956 193.248 262.852 202.08 270.148C210.72 277.252 217.536 286.276 222.528 297.22C227.52 308.164 230.016 320.26 230.016 333.508C230.016 349.444 226.656 363.652 219.936 376.132C213.216 388.42 203.616 398.116 191.136 405.22C178.656 412.132 163.968 415.588 147.072 415.588C130.176 415.588 115.584 412.132 103.296 405.22C90.816 398.308 81.216 388.708 74.496 376.42C67.776 363.94 64.416 349.636 64.416 333.508C64.416 317.572 67.68 303.46 74.208 291.172C80.736 278.884 90.144 269.284 102.432 262.372C114.528 255.46 128.832 252.004 145.344 252.004ZM131.232 309.604C124.32 309.604 118.944 311.908 115.104 316.516C111.072 321.124 109.056 326.884 109.056 333.796C109.056 340.708 110.976 346.372 114.816 350.788C118.464 355.204 123.936 358.084 131.232 359.428V309.604ZM64.992 123.207C64.992 104.583 71.232 89.7992 83.712 78.8552C96 67.9112 112.704 62.4392 133.824 62.4392H228V118.887H141.312C132.096 118.887 124.896 121.287 119.712 126.087C114.336 130.887 111.648 137.319 111.648 145.383C111.648 153.831 114.336 160.455 119.712 165.255C124.896 170.055 132.096 172.455 141.312 172.455H228V228.903H66.432V172.455H89.472C82.176 167.463 76.32 160.743 71.904 152.295C67.296 143.847 64.992 134.151 64.992 123.207ZM147.072 40.6817C130.368 40.6817 115.776 37.2257 103.296 30.3137C90.816 23.4017 81.216 13.8017 74.496 1.51375C67.776 -10.9663 64.416 -25.1743 64.416 -41.1103C64.416 -61.6543 70.08 -78.9343 81.408 -92.9503C92.544 -106.966 108.192 -115.99 128.352 -120.022V-60.1183C117.792 -56.6623 112.512 -49.9423 112.512 -39.9583C112.512 -32.8543 115.488 -27.1903 121.44 -22.9663C127.2 -18.9343 135.744 -16.9183 147.072 -16.9183C158.4 -16.9183 167.04 -18.9343 172.992 -22.9663C178.944 -27.1903 181.92 -32.8543 181.92 -39.9583C181.92 -50.1343 176.64 -56.8543 166.08 -60.1183V-120.022C186.048 -115.99 201.696 -106.966 213.024 -92.9503C224.352 -78.9343 230.016 -61.6543 230.016 -41.1103C230.016 -25.1743 226.656 -10.9663 219.936 1.51375C213.216 13.8017 203.616 23.4017 191.136 30.3137C178.656 37.2257 163.968 40.6817 147.072 40.6817Z" fill="#EEEFEF"/>
</svg>
