<svg width="48" height="48" viewBox="0 0 48 48" fill="none" xmlns="http://www.w3.org/2000/svg">
<path fill-rule="evenodd" clip-rule="evenodd" d="M24 48C37.2548 48 48 37.2548 48 24C48 10.7452 37.2548 0 24 0C10.7452 0 0 10.7452 0 24C0 37.2548 10.7452 48 24 48ZM19.7426 24.0002C19.7426 21.6475 21.6499 19.7402 24.0026 19.7402C26.3553 19.7402 28.2626 21.6475 28.2626 24.0002C28.2626 26.353 26.3553 28.2602 24.0026 28.2602C21.6499 28.2602 19.7426 26.353 19.7426 24.0002ZM24.0026 16.7402C19.993 16.7402 16.7426 19.9906 16.7426 24.0002C16.7426 28.0098 19.993 31.2602 24.0026 31.2602C28.0122 31.2602 31.2626 28.0098 31.2626 24.0002C31.2626 19.9906 28.0122 16.7402 24.0026 16.7402ZM17.5724 12.0601C14.5281 12.0601 12.0602 14.5279 12.0602 17.5722V30.4279C12.0602 33.4722 14.5281 35.9401 17.5724 35.9401H30.428C33.4723 35.9401 35.9402 33.4722 35.9402 30.4279V17.5722C35.9402 14.5279 33.4723 12.0601 30.428 12.0601H17.5724ZM9.06018 17.5722C9.06018 12.8711 12.8712 9.06006 17.5724 9.06006H30.428C35.1292 9.06006 38.9402 12.8711 38.9402 17.5722V30.4279C38.9402 35.129 35.1292 38.9401 30.428 38.9401H17.5724C12.8712 38.9401 9.06018 35.129 9.06018 30.4279V17.5722ZM33.5994 16.3201C33.5994 17.3805 32.7398 18.2401 31.6794 18.2401C30.6191 18.2401 29.7594 17.3805 29.7594 16.3201C29.7594 15.2598 30.6191 14.4001 31.6794 14.4001C32.7398 14.4001 33.5994 15.2598 33.5994 16.3201Z" fill="#011E56"/>
</svg>
