<svg width="437" height="136" viewBox="0 0 437 136" fill="none" xmlns="http://www.w3.org/2000/svg">
<path d="M145.428 28.5625H143.322C142.794 27.0495 141.855 25.4453 140.506 23.75C139.175 22.0365 137.908 21.0977 136.705 20.9336C136.158 20.8607 135.429 20.7969 134.518 20.7422C133.606 20.6875 132.768 20.6602 132.002 20.6602H125.959V35.8906H129.814C130.908 35.8906 131.856 35.7721 132.658 35.5352C133.46 35.2799 134.171 34.8333 134.791 34.1953C135.247 33.7396 135.684 32.9831 136.104 31.9258C136.541 30.8503 136.805 29.9297 136.896 29.1641H138.975V45.4883H136.896C136.824 44.668 136.541 43.6745 136.049 42.5078C135.557 41.3229 135.137 40.5391 134.791 40.1562C134.262 39.5729 133.588 39.1445 132.768 38.8711C131.947 38.5794 130.963 38.4336 129.814 38.4336H125.959V51.2852C125.959 51.9414 126.077 52.5065 126.314 52.9805C126.57 53.4362 127.044 53.8099 127.736 54.1016C128.137 54.2656 128.684 54.4206 129.377 54.5664C130.088 54.694 130.79 54.7943 131.482 54.8672V57H110.564V54.8672C111.093 54.8125 111.795 54.7396 112.67 54.6484C113.545 54.5391 114.156 54.4115 114.502 54.2656C115.158 54.0104 115.614 53.6549 115.869 53.1992C116.124 52.7435 116.252 52.1602 116.252 51.4492V24.0781C116.252 23.4583 116.133 22.9206 115.896 22.4648C115.678 21.9909 115.213 21.599 114.502 21.2891C113.992 21.0703 113.317 20.8698 112.479 20.6875C111.64 20.5052 111.002 20.3867 110.564 20.332V18.1992H145.428V28.5625ZM184.693 44.5586L183.928 57H148.189V54.8672C148.827 54.8125 149.575 54.7305 150.432 54.6211C151.288 54.4935 151.854 54.375 152.127 54.2656C152.783 54.0104 153.239 53.6549 153.494 53.1992C153.749 52.7435 153.877 52.1602 153.877 51.4492V24.0781C153.877 23.4219 153.777 22.8841 153.576 22.4648C153.376 22.0273 152.893 21.6354 152.127 21.2891C151.562 21.0339 150.878 20.8333 150.076 20.6875C149.292 20.5234 148.663 20.4049 148.189 20.332V18.1992H169.49V20.332C168.907 20.3867 168.214 20.4688 167.412 20.5781C166.628 20.6693 165.945 20.806 165.361 20.9883C164.65 21.2253 164.176 21.599 163.939 22.1094C163.702 22.6016 163.584 23.1667 163.584 23.8047V49.3164C163.584 50.5195 163.666 51.4674 163.83 52.1602C163.994 52.8529 164.313 53.3633 164.787 53.6914C165.261 54.0378 165.917 54.2656 166.756 54.375C167.613 54.4661 168.788 54.5117 170.283 54.5117C171.742 54.5117 173.154 54.4297 174.521 54.2656C175.907 54.0833 176.9 53.7005 177.502 53.1172C178.432 52.1875 179.38 50.8841 180.346 49.207C181.33 47.5117 182.114 45.9622 182.697 44.5586H184.693ZM228.689 57H207.553V54.8672C208.537 54.7943 209.695 54.6211 211.025 54.3477C212.356 54.056 213.021 53.7005 213.021 53.2812C213.021 53.1354 213.003 52.9714 212.967 52.7891C212.949 52.6068 212.876 52.3607 212.748 52.0508L209.439 44.0117H196.041C195.731 44.7591 195.385 45.6341 195.002 46.6367C194.637 47.6393 194.318 48.5326 194.045 49.3164C193.699 50.3372 193.489 51.0755 193.416 51.5312C193.361 51.987 193.334 52.306 193.334 52.4883C193.334 53.0716 193.771 53.5729 194.646 53.9922C195.54 54.3932 197.016 54.6849 199.076 54.8672V57H183.162V54.8672C183.764 54.8307 184.438 54.7396 185.186 54.5938C185.951 54.4297 186.553 54.2109 186.99 53.9375C187.738 53.5 188.367 52.9622 188.877 52.3242C189.406 51.6862 189.843 50.9297 190.189 50.0547C192.304 44.9323 194.419 39.8008 196.533 34.6602C198.666 29.5195 201.018 23.8503 203.588 17.6523H209.057C212.63 26.4388 215.428 33.3841 217.451 38.4883C219.475 43.5924 221.197 47.8216 222.619 51.1758C222.856 51.7227 223.157 52.224 223.521 52.6797C223.886 53.1172 224.406 53.5365 225.08 53.9375C225.59 54.2292 226.183 54.4479 226.857 54.5938C227.532 54.7396 228.143 54.8307 228.689 54.8672V57ZM208.318 41.3047L202.686 27.25L197.135 41.3047H208.318ZM270.033 20.332C269.377 20.4049 268.775 20.5234 268.229 20.6875C267.682 20.8516 267.162 21.0794 266.67 21.3711C265.886 21.8086 265.184 22.3737 264.564 23.0664C263.963 23.7409 263.37 24.4974 262.787 25.3359C261.602 27.0677 260.354 28.9544 259.041 30.9961C257.747 33.0195 256.334 35.2526 254.803 37.6953C253.8 39.2448 253.18 40.4388 252.943 41.2773C252.725 42.0977 252.615 43.5286 252.615 45.5703V51.0664C252.615 51.7227 252.734 52.2969 252.971 52.7891C253.226 53.2812 253.7 53.6823 254.393 53.9922C254.702 54.1198 255.359 54.293 256.361 54.5117C257.364 54.7122 258.102 54.8307 258.576 54.8672V57H236.947V54.8672C237.458 54.8307 238.187 54.7578 239.135 54.6484C240.101 54.5391 240.775 54.4115 241.158 54.2656C241.833 53.974 242.288 53.5911 242.525 53.1172C242.781 52.625 242.908 52.0326 242.908 51.3398V44.5039C242.908 43.9023 242.899 43.3737 242.881 42.918C242.863 42.4622 242.799 42.0794 242.689 41.7695C242.562 41.4232 242.343 40.9857 242.033 40.457C241.723 39.9102 241.322 39.2083 240.83 38.3516C239.426 35.8906 238.068 33.5573 236.756 31.3516C235.443 29.1458 234.195 27.0768 233.01 25.1445C232.39 24.1419 231.761 23.3398 231.123 22.7383C230.503 22.1185 229.865 21.6172 229.209 21.2344C228.717 20.9609 228.115 20.7513 227.404 20.6055C226.712 20.4596 226.083 20.3685 225.518 20.332V18.1992H247.748V20.332C245.706 20.3867 244.33 20.5326 243.619 20.7695C242.908 20.9883 242.553 21.2982 242.553 21.6992C242.553 21.8997 242.68 22.3008 242.936 22.9023C243.209 23.5039 243.683 24.4336 244.357 25.6914C244.977 26.8763 245.88 28.5078 247.064 30.5859C248.268 32.6641 249.708 35.0977 251.385 37.8867C254.848 32.3997 257.227 28.5716 258.521 26.4023C259.816 24.2148 260.463 22.875 260.463 22.3828C260.463 21.763 260.08 21.2891 259.314 20.9609C258.567 20.6328 257.346 20.4232 255.65 20.332V18.1992H270.033V20.332ZM304.486 28.0977H302.408C301.88 26.6211 300.968 25.1263 299.674 23.6133C298.38 22.1003 297.094 21.207 295.818 20.9336C295.271 20.806 294.506 20.7331 293.521 20.7148C292.555 20.6784 291.753 20.6602 291.115 20.6602H285.482V35.6445H289.475C290.477 35.6445 291.389 35.526 292.209 35.2891C293.029 35.0521 293.777 34.5964 294.451 33.9219C294.87 33.5026 295.29 32.7643 295.709 31.707C296.146 30.6497 296.429 29.7292 296.557 28.9453H298.635V45.1328H296.557C296.447 44.3672 296.165 43.4102 295.709 42.2617C295.271 41.0951 294.852 40.293 294.451 39.8555C293.85 39.1992 293.139 38.7526 292.318 38.5156C291.498 38.2604 290.55 38.1328 289.475 38.1328H285.482V49.3164C285.482 50.4831 285.564 51.4128 285.729 52.1055C285.911 52.7799 286.239 53.2995 286.713 53.6641C287.169 54.0104 287.788 54.2383 288.572 54.3477C289.374 54.457 290.459 54.5117 291.826 54.5117C292.464 54.5117 293.23 54.5026 294.123 54.4844C295.016 54.4661 295.8 54.4115 296.475 54.3203C297.24 54.2292 297.951 54.0924 298.607 53.9102C299.282 53.7279 299.783 53.4635 300.111 53.1172C300.986 52.224 301.971 50.8659 303.064 49.043C304.158 47.2018 304.878 45.8255 305.225 44.9141H307.221L306.482 57H270.088V54.8672C270.598 54.8307 271.291 54.7578 272.166 54.6484C273.041 54.5391 273.661 54.4115 274.025 54.2656C274.718 53.974 275.183 53.6094 275.42 53.1719C275.657 52.7161 275.775 52.1419 275.775 51.4492V24.0781C275.775 23.4219 275.675 22.8841 275.475 22.4648C275.274 22.0273 274.791 21.6354 274.025 21.2891C273.551 21.0703 272.886 20.8698 272.029 20.6875C271.173 20.5052 270.525 20.3867 270.088 20.332V18.1992H304.486V28.0977ZM355.072 20.332C354.562 20.3867 353.833 20.487 352.885 20.6328C351.937 20.7786 351.08 21.1341 350.314 21.6992C349.64 22.1914 349.157 23.0391 348.865 24.2422C348.592 25.4271 348.455 27.1771 348.455 29.4922V57.2188H343.588L319.416 27.2227V45.4336C319.416 47.694 319.562 49.4167 319.854 50.6016C320.163 51.7682 320.656 52.625 321.33 53.1719C321.822 53.5729 322.606 53.9284 323.682 54.2383C324.757 54.5482 325.614 54.7578 326.252 54.8672V57H309.572V54.8672C310.283 54.8125 311.094 54.6849 312.006 54.4844C312.936 54.2656 313.71 53.9375 314.33 53.5C315.041 52.9714 315.524 52.1784 315.779 51.1211C316.053 50.0456 316.189 48.25 316.189 45.7344V27.3594C316.189 26.4479 316.044 25.5911 315.752 24.7891C315.479 23.9688 315.041 23.2669 314.439 22.6836C313.801 22.0638 313.063 21.5807 312.225 21.2344C311.404 20.8698 310.465 20.5872 309.408 20.3867V18.1992H324.01L345.229 44.4492V29.7656C345.229 27.4323 345.074 25.7005 344.764 24.5703C344.454 23.4219 343.962 22.5742 343.287 22.0273C342.758 21.6081 341.975 21.2526 340.936 20.9609C339.896 20.651 339.058 20.4414 338.42 20.332V18.1992H355.072V20.332ZM377.877 58.0391C375.033 58.0391 372.372 57.5833 369.893 56.6719C367.413 55.7422 365.253 54.4023 363.412 52.6523C361.607 50.9388 360.186 48.8242 359.146 46.3086C358.107 43.7747 357.588 40.9948 357.588 37.9688C357.588 34.9609 358.107 32.181 359.146 29.6289C360.204 27.0586 361.68 24.8346 363.576 22.957C365.436 21.1159 367.669 19.694 370.275 18.6914C372.882 17.6706 375.671 17.1602 378.643 17.1602C380.794 17.1602 382.753 17.4245 384.521 17.9531C386.29 18.4635 387.785 19.0469 389.006 19.7031L390.701 18.1992H393.08L393.326 32.3633H390.92C389.553 28.043 387.912 24.8711 385.998 22.8477C384.084 20.8242 381.751 19.8125 378.998 19.8125C375.571 19.8125 372.964 21.3255 371.178 24.3516C369.391 27.3594 368.498 31.5885 368.498 37.0391C368.498 40.1198 368.799 42.7539 369.4 44.9414C370.02 47.1107 370.822 48.8607 371.807 50.1914C372.864 51.5768 374.113 52.5977 375.553 53.2539C376.993 53.8919 378.588 54.2109 380.338 54.2109C382.89 54.2109 385.16 53.5182 387.146 52.1328C389.152 50.7474 390.975 48.651 392.615 45.8438L394.967 47.2656C394.183 48.8698 393.29 50.3099 392.287 51.5859C391.285 52.8438 390.127 53.9284 388.814 54.8398C387.374 55.8424 385.779 56.6263 384.029 57.1914C382.298 57.7565 380.247 58.0391 377.877 58.0391ZM432.018 28.0977H429.939C429.411 26.6211 428.499 25.1263 427.205 23.6133C425.911 22.1003 424.626 21.207 423.35 20.9336C422.803 20.806 422.037 20.7331 421.053 20.7148C420.087 20.6784 419.285 20.6602 418.646 20.6602H413.014V35.6445H417.006C418.008 35.6445 418.92 35.526 419.74 35.2891C420.561 35.0521 421.308 34.5964 421.982 33.9219C422.402 33.5026 422.821 32.7643 423.24 31.707C423.678 30.6497 423.96 29.7292 424.088 28.9453H426.166V45.1328H424.088C423.979 44.3672 423.696 43.4102 423.24 42.2617C422.803 41.0951 422.383 40.293 421.982 39.8555C421.381 39.1992 420.67 38.7526 419.85 38.5156C419.029 38.2604 418.081 38.1328 417.006 38.1328H413.014V49.3164C413.014 50.4831 413.096 51.4128 413.26 52.1055C413.442 52.7799 413.77 53.2995 414.244 53.6641C414.7 54.0104 415.32 54.2383 416.104 54.3477C416.906 54.457 417.99 54.5117 419.357 54.5117C419.995 54.5117 420.761 54.5026 421.654 54.4844C422.548 54.4661 423.331 54.4115 424.006 54.3203C424.771 54.2292 425.482 54.0924 426.139 53.9102C426.813 53.7279 427.314 53.4635 427.643 53.1172C428.518 52.224 429.502 50.8659 430.596 49.043C431.689 47.2018 432.41 45.8255 432.756 44.9141H434.752L434.014 57H397.619V54.8672C398.13 54.8307 398.822 54.7578 399.697 54.6484C400.572 54.5391 401.192 54.4115 401.557 54.2656C402.249 53.974 402.714 53.6094 402.951 53.1719C403.188 52.7161 403.307 52.1419 403.307 51.4492V24.0781C403.307 23.4219 403.206 22.8841 403.006 22.4648C402.805 22.0273 402.322 21.6354 401.557 21.2891C401.083 21.0703 400.417 20.8698 399.561 20.6875C398.704 20.5052 398.057 20.3867 397.619 20.332V18.1992H432.018V28.0977Z" fill="white"/>
<path d="M139.901 122H126.915V120.44C128.058 120.367 129.002 120.22 129.75 120C130.511 119.781 130.892 119.51 130.892 119.188C130.892 119.056 130.877 118.895 130.848 118.704C130.819 118.514 130.775 118.345 130.716 118.199L128.124 111.211H117.203C116.793 112.237 116.456 113.13 116.192 113.892C115.943 114.654 115.716 115.357 115.511 116.001C115.321 116.631 115.189 117.144 115.116 117.54C115.042 117.935 115.006 118.257 115.006 118.506C115.006 119.092 115.467 119.546 116.39 119.869C117.313 120.191 118.353 120.381 119.51 120.44V122H107.777V120.44C108.158 120.411 108.634 120.33 109.205 120.198C109.776 120.052 110.245 119.861 110.611 119.627C111.197 119.231 111.651 118.821 111.974 118.396C112.296 117.957 112.611 117.356 112.918 116.595C114.486 112.684 116.214 108.289 118.104 103.411C119.994 98.5332 121.678 94.1899 123.158 90.3813H124.916L135.309 117.276C135.528 117.847 135.777 118.309 136.056 118.66C136.334 119.012 136.722 119.356 137.22 119.693C137.557 119.898 137.997 120.074 138.539 120.22C139.081 120.352 139.535 120.425 139.901 120.44V122ZM127.333 109.256L122.608 97.1709L117.972 109.256H127.333ZM171.854 122.725C169.994 122.725 168.207 122.359 166.493 121.626C164.794 120.894 163.285 119.839 161.967 118.462C160.663 117.085 159.623 115.408 158.847 113.431C158.07 111.438 157.682 109.197 157.682 106.707C157.682 104.217 158.063 101.961 158.825 99.9395C159.586 97.9033 160.641 96.1528 161.989 94.688C163.322 93.2378 164.896 92.1172 166.713 91.3262C168.529 90.5352 170.47 90.1396 172.536 90.1396C174.074 90.1396 175.465 90.3301 176.71 90.7109C177.955 91.0918 179.142 91.6265 180.27 92.3149L181.171 90.8208H182.929L183.126 101.939H181.325C181.09 100.855 180.739 99.6831 180.27 98.4233C179.801 97.1489 179.252 96.0723 178.622 95.1934C177.919 94.1973 177.084 93.4209 176.117 92.8643C175.15 92.293 174.044 92.0073 172.799 92.0073C171.378 92.0073 170.053 92.3223 168.822 92.9521C167.606 93.582 166.552 94.5122 165.658 95.7427C164.808 96.9292 164.142 98.438 163.659 100.269C163.175 102.1 162.933 104.144 162.933 106.399C162.933 108.392 163.183 110.223 163.681 111.893C164.193 113.548 164.918 115.005 165.856 116.265C166.793 117.51 167.899 118.484 169.174 119.188C170.463 119.891 171.898 120.242 173.48 120.242C174.667 120.242 175.758 120.059 176.754 119.693C177.75 119.312 178.615 118.814 179.347 118.199C180.079 117.554 180.724 116.822 181.281 116.001C181.837 115.181 182.291 114.288 182.643 113.321L184.291 114.112C183.031 117.203 181.361 119.415 179.281 120.748C177.201 122.066 174.725 122.725 171.854 122.725ZM233.207 122H220.221V120.44C221.364 120.367 222.309 120.22 223.056 120C223.818 119.781 224.199 119.51 224.199 119.188C224.199 119.056 224.184 118.895 224.155 118.704C224.125 118.514 224.081 118.345 224.023 118.199L221.43 111.211H210.51C210.099 112.237 209.762 113.13 209.499 113.892C209.25 114.654 209.023 115.357 208.818 116.001C208.627 116.631 208.495 117.144 208.422 117.54C208.349 117.935 208.312 118.257 208.312 118.506C208.312 119.092 208.774 119.546 209.697 119.869C210.619 120.191 211.659 120.381 212.817 120.44V122H201.083V120.44C201.464 120.411 201.94 120.33 202.512 120.198C203.083 120.052 203.552 119.861 203.918 119.627C204.504 119.231 204.958 118.821 205.28 118.396C205.602 117.957 205.917 117.356 206.225 116.595C207.792 112.684 209.521 108.289 211.41 103.411C213.3 98.5332 214.985 94.1899 216.464 90.3813H218.222L228.615 117.276C228.835 117.847 229.084 118.309 229.362 118.66C229.64 119.012 230.029 119.356 230.527 119.693C230.864 119.898 231.303 120.074 231.845 120.22C232.387 120.352 232.841 120.425 233.207 120.44V122ZM220.639 109.256L215.915 97.1709L211.279 109.256H220.639ZM281.289 106.597C281.289 109.249 280.791 111.548 279.795 113.497C278.799 115.445 277.502 117.042 275.905 118.287C274.294 119.532 272.485 120.462 270.478 121.077C268.471 121.692 266.399 122 264.26 122H251.34V120.44C251.765 120.44 252.314 120.403 252.988 120.33C253.676 120.242 254.131 120.147 254.35 120.044C254.79 119.854 255.105 119.576 255.295 119.209C255.5 118.829 255.603 118.375 255.603 117.847V95.3472C255.603 94.8491 255.515 94.4023 255.339 94.0068C255.178 93.6113 254.848 93.2964 254.35 93.062C253.896 92.8423 253.405 92.6812 252.878 92.5786C252.351 92.4761 251.897 92.4102 251.516 92.3809V90.8208H265.139C267.014 90.8208 268.86 91.1138 270.676 91.6997C272.492 92.271 274.074 93.0474 275.422 94.0288C277.253 95.3325 278.689 97.0391 279.729 99.1484C280.769 101.258 281.289 103.741 281.289 106.597ZM275.905 106.575C275.905 104.48 275.627 102.591 275.071 100.906C274.514 99.207 273.701 97.7275 272.632 96.4678C271.621 95.2666 270.376 94.3218 268.896 93.6333C267.431 92.9448 265.798 92.6006 263.996 92.6006C263.396 92.6006 262.715 92.6152 261.953 92.6445C261.206 92.6592 260.649 92.6738 260.283 92.6885V116.661C260.283 117.994 260.671 118.917 261.447 119.429C262.224 119.942 263.418 120.198 265.029 120.198C266.889 120.198 268.515 119.869 269.907 119.209C271.299 118.55 272.426 117.635 273.291 116.463C274.199 115.232 274.858 113.812 275.268 112.2C275.693 110.574 275.905 108.699 275.905 106.575ZM328.447 112.815L327.854 122H301.97V120.44C302.41 120.411 302.996 120.352 303.728 120.264C304.461 120.162 304.937 120.059 305.156 119.957C305.625 119.737 305.947 119.451 306.123 119.1C306.314 118.748 306.409 118.301 306.409 117.759V95.3472C306.409 94.8638 306.328 94.439 306.167 94.0728C306.006 93.6919 305.669 93.3843 305.156 93.1499C304.761 92.9595 304.226 92.791 303.552 92.6445C302.893 92.498 302.366 92.4102 301.97 92.3809V90.8208H326.096V98.3354H324.448C324.155 97.2222 323.518 96.043 322.537 94.7979C321.57 93.5381 320.647 92.8496 319.768 92.7324C319.314 92.6738 318.772 92.6299 318.142 92.6006C317.512 92.5713 316.795 92.5566 315.989 92.5566H311.089V104.949H314.605C315.733 104.949 316.553 104.847 317.066 104.642C317.593 104.422 318.054 104.063 318.45 103.565C318.772 103.14 319.043 102.576 319.263 101.873C319.497 101.155 319.651 100.481 319.724 99.8516H321.372V112.046H319.724C319.666 111.343 319.504 110.604 319.241 109.827C318.992 109.036 318.728 108.465 318.45 108.113C317.996 107.542 317.476 107.168 316.89 106.993C316.318 106.817 315.557 106.729 314.605 106.729H311.089V116.089C311.089 117.027 311.155 117.767 311.287 118.309C311.419 118.851 311.675 119.261 312.056 119.539C312.437 119.817 312.957 120 313.616 120.088C314.275 120.162 315.212 120.198 316.428 120.198C316.912 120.198 317.549 120.198 318.34 120.198C319.131 120.198 319.797 120.169 320.339 120.11C320.896 120.052 321.467 119.949 322.053 119.803C322.654 119.642 323.079 119.429 323.328 119.166C324.002 118.462 324.705 117.4 325.437 115.979C326.184 114.544 326.66 113.489 326.865 112.815H328.447ZM386.263 122H372.486V120.44C372.984 120.425 373.621 120.374 374.397 120.286C375.188 120.198 375.73 120.074 376.023 119.913C376.478 119.634 376.807 119.319 377.012 118.968C377.232 118.602 377.342 118.147 377.342 117.605V94.9297H377.012L366.377 121.495H365.279L355.149 94.3804H354.864V112.991C354.864 114.793 354.974 116.163 355.193 117.1C355.428 118.038 355.779 118.711 356.248 119.122C356.57 119.429 357.237 119.722 358.248 120C359.258 120.279 359.917 120.425 360.225 120.44V122H347.635V120.44C348.294 120.381 348.982 120.271 349.7 120.11C350.433 119.949 350.997 119.708 351.392 119.385C351.905 118.975 352.256 118.345 352.447 117.496C352.637 116.646 352.732 115.225 352.732 113.233V97.2808C352.732 96.3579 352.623 95.6035 352.403 95.0176C352.183 94.4316 351.868 93.9556 351.458 93.5894C351.004 93.1938 350.447 92.9009 349.788 92.7104C349.129 92.52 348.477 92.4102 347.833 92.3809V90.8208H358.467L367.388 114.2L375.013 94.644C375.291 93.9263 375.525 93.1792 375.716 92.4028C375.921 91.6118 376.031 91.0845 376.045 90.8208H386.219V92.3809C385.809 92.3955 385.281 92.4614 384.637 92.5786C384.007 92.6958 383.545 92.8057 383.252 92.9082C382.754 93.084 382.417 93.377 382.242 93.7871C382.066 94.1973 381.978 94.644 381.978 95.1274V117.605C381.978 118.118 382.066 118.55 382.242 118.902C382.417 119.253 382.754 119.561 383.252 119.825C383.516 119.971 383.985 120.11 384.659 120.242C385.333 120.359 385.867 120.425 386.263 120.44V122ZM434.3 92.3809C434.051 92.3955 433.656 92.498 433.114 92.6885C432.572 92.8643 432.184 93.04 431.949 93.2158C431.378 93.5674 430.99 93.8384 430.785 94.0288C430.579 94.2192 430.184 94.7173 429.598 95.5229C428.455 97.1343 427.401 98.7676 426.434 100.423C425.467 102.078 424.259 104.18 422.809 106.729C422.267 107.667 421.908 108.421 421.732 108.992C421.556 109.563 421.468 110.391 421.468 111.475V117.43C421.468 117.957 421.571 118.418 421.776 118.814C421.996 119.195 422.362 119.502 422.874 119.737C423.182 119.854 423.731 120 424.522 120.176C425.313 120.337 425.951 120.425 426.434 120.44V122H411.844V120.44C412.254 120.411 412.87 120.359 413.69 120.286C414.51 120.198 415.081 120.088 415.404 119.957C415.931 119.737 416.29 119.437 416.48 119.056C416.685 118.675 416.788 118.206 416.788 117.649V110.069C416.788 109.834 416.642 109.41 416.349 108.794C416.07 108.165 415.733 107.469 415.338 106.707C414.459 105.008 413.485 103.169 412.415 101.192C411.346 99.2144 410.416 97.5225 409.625 96.1162C409.142 95.2812 408.709 94.6514 408.329 94.2266C407.962 93.8018 407.538 93.4282 407.054 93.106C406.703 92.8862 406.278 92.7178 405.78 92.6006C405.296 92.4834 404.857 92.4102 404.461 92.3809V90.8208H417.755V92.3809C416.261 92.4102 415.206 92.5127 414.591 92.6885C413.975 92.8643 413.668 93.1133 413.668 93.4355C413.668 93.5234 413.712 93.6772 413.8 93.897C413.888 94.1167 414.012 94.395 414.173 94.7319C414.364 95.1128 414.591 95.5522 414.854 96.0503C415.118 96.5337 415.367 97.0024 415.601 97.4565C416.29 98.7603 416.993 100.064 417.711 101.368C418.429 102.657 419.366 104.341 420.523 106.421C422.823 102.715 424.574 99.8296 425.775 97.7642C426.991 95.6841 427.599 94.439 427.599 94.0288C427.599 93.6919 427.474 93.4209 427.225 93.2158C426.976 93.0107 426.646 92.8496 426.236 92.7324C425.811 92.6152 425.35 92.542 424.852 92.5127C424.354 92.4688 423.892 92.4248 423.468 92.3809V90.8208H434.3V92.3809Z" fill="white"/>
<path d="M84.6785 16.5462L59.5298 0L0.0253906 38.9037V71.911L84.6785 16.5462Z" fill="white"/>
<path d="M0 80.3322V113.336L73.2524 65.407L47.9499 48.9863L0 80.3322Z" fill="white"/>
<path d="M27.9545 135.9V103.48L3.07422 119.743L27.9545 135.9Z" fill="white"/>
</svg>
