<svg width="100" height="100" viewBox="0 0 100 100" fill="none" xmlns="http://www.w3.org/2000/svg">
<ellipse cx="50" cy="49.7984" rx="50" ry="49.7984" fill="#E6EDFA"/>
<path d="M50 58.5H41.5V50L67 24.5L75.5 33L50 58.5Z" stroke="#011E56" stroke-width="2" stroke-linecap="round" stroke-linejoin="round"/>
<path d="M60.625 30.875L69.125 39.375" stroke="#011E56" stroke-width="2" stroke-linecap="round" stroke-linejoin="round"/>
<path d="M73.375 47.875V71.25C73.375 71.8136 73.1511 72.3541 72.7526 72.7526C72.3541 73.1511 71.8136 73.375 71.25 73.375H28.75C28.1864 73.375 27.6459 73.1511 27.2474 72.7526C26.8489 72.3541 26.625 71.8136 26.625 71.25V28.75C26.625 28.1864 26.8489 27.6459 27.2474 27.2474C27.6459 26.8489 28.1864 26.625 28.75 26.625H52.125" stroke="#011E56" stroke-width="2" stroke-linecap="round" stroke-linejoin="round"/>
</svg>
