<svg width="20" height="20" viewBox="0 0 20 20" fill="none" xmlns="http://www.w3.org/2000/svg">
<path d="M19.3332 14.1004V16.6004C19.3341 16.8325 19.2866 17.0622 19.1936 17.2749C19.1006 17.4875 18.9643 17.6784 18.7933 17.8353C18.6222 17.9922 18.4203 18.1116 18.2005 18.186C17.9806 18.2603 17.7477 18.288 17.5165 18.2671C14.9522 17.9884 12.489 17.1122 10.3249 15.7087C8.31139 14.4293 6.60431 12.7222 5.32486 10.7087C3.91651 8.53474 3.04007 6.05957 2.76653 3.48374C2.7457 3.2533 2.77309 3.02104 2.84695 2.80176C2.9208 2.58248 3.03951 2.38098 3.1955 2.21009C3.3515 2.0392 3.54137 1.90266 3.75302 1.80917C3.96468 1.71569 4.19348 1.66729 4.42486 1.66707H6.92486C7.32928 1.66309 7.72136 1.80631 8.028 2.07002C8.33464 2.33373 8.53493 2.69995 8.59153 3.10041C8.69705 3.90046 8.89274 4.68601 9.17486 5.44207C9.28698 5.74034 9.31125 6.0645 9.24478 6.37614C9.17832 6.68778 9.02392 6.97383 8.79986 7.20041L7.74153 8.25874C8.92783 10.345 10.6552 12.0724 12.7415 13.2587L13.7999 12.2004C14.0264 11.9764 14.3125 11.8219 14.6241 11.7555C14.9358 11.689 15.2599 11.7133 15.5582 11.8254C16.3143 12.1075 17.0998 12.3032 17.8999 12.4087C18.3047 12.4658 18.6744 12.6697 18.9386 12.9817C19.2029 13.2936 19.3433 13.6917 19.3332 14.1004Z" stroke="white" stroke-linecap="round" stroke-linejoin="round"/>
</svg>
