<svg width="140" height="140" viewBox="0 0 140 140" fill="none" xmlns="http://www.w3.org/2000/svg">
<path d="M70 45.5C64.022 45.5 58.681 48.23 55.153 52.5C52.976 55.1383 51.5413 58.3091 50.9965 61.686C50.4518 65.0629 50.8167 68.524 52.0537 71.7131C53.2907 74.9022 55.3551 77.704 58.0344 79.8304C60.7138 81.9567 63.9113 83.3307 67.298 83.811C71.9015 74.9305 79.7711 68.1827 89.25 64.988V64.75C89.25 60.095 87.598 55.825 84.847 52.5C81.319 48.23 75.978 45.5 70 45.5ZM130.739 76.454C126.547 71.5481 121.187 67.7772 115.153 65.4894C109.119 63.2016 102.606 62.4707 96.215 63.364C96.0215 59.5682 95.0014 55.8605 93.226 52.5H122.5C125.285 52.5 127.956 53.6062 129.925 55.5754C131.894 57.5445 133 60.2152 133 63V66.5C133 69.86 132.23 73.248 130.739 76.454ZM64.449 91C63.504 94.339 63 97.86 63 101.5C63 114.079 69.027 125.244 78.358 132.265C75.5997 132.76 72.8024 133.006 70 133C48.02 133 35 118.797 35 105V101.5C34.9963 100.12 35.2654 98.753 35.7917 97.4775C36.3181 96.2019 37.0914 95.0429 38.0671 94.0671C39.0429 93.0914 40.2019 92.3181 41.4775 91.7917C42.753 91.2654 44.1201 90.9963 45.5 91H64.449ZM30.205 92.988C15.435 88.991 7 77.609 7 66.5V63C7 60.2152 8.10625 57.5445 10.0754 55.5754C12.0445 53.6062 14.7152 52.5 17.5 52.5H46.781C44.7853 56.2745 43.7447 60.4804 43.75 64.75C43.7453 68.3647 44.4893 71.9412 45.935 75.2543C47.3807 78.5673 49.4968 81.5451 52.15 84H45.5C42.3809 83.9992 39.3183 84.832 36.6292 86.4122C33.94 87.9925 31.7221 90.2627 30.205 92.988V92.988ZM42 7C47.1054 7 52.0017 9.02812 55.6118 12.6382C59.2219 16.2483 61.25 21.1446 61.25 26.25C61.25 31.3554 59.2219 36.2517 55.6118 39.8618C52.0017 43.4719 47.1054 45.5 42 45.5C36.8946 45.5 31.9983 43.4719 28.3882 39.8618C24.7781 36.2517 22.75 31.3554 22.75 26.25C22.75 21.1446 24.7781 16.2483 28.3882 12.6382C31.9983 9.02812 36.8946 7 42 7V7ZM98 7C103.105 7 108.002 9.02812 111.612 12.6382C115.222 16.2483 117.25 21.1446 117.25 26.25C117.25 31.3554 115.222 36.2517 111.612 39.8618C108.002 43.4719 103.105 45.5 98 45.5C92.8946 45.5 87.9983 43.4719 84.3882 39.8618C80.7781 36.2517 78.75 31.3554 78.75 26.25C78.75 21.1446 80.7781 16.2483 84.3882 12.6382C87.9983 9.02812 92.8946 7 98 7V7ZM101.5 133C109.854 133 117.866 129.681 123.774 123.774C129.681 117.866 133 109.854 133 101.5C133 93.1457 129.681 85.1335 123.774 79.2261C117.866 73.3187 109.854 70 101.5 70C93.1457 70 85.1335 73.3187 79.2261 79.2261C73.3188 85.1335 70 93.1457 70 101.5C70 109.854 73.3188 117.866 79.2261 123.774C85.1335 129.681 93.1457 133 101.5 133V133ZM101.5 84C102.428 84 103.319 84.3687 103.975 85.0251C104.631 85.6815 105 86.5717 105 87.5V98H115.5C116.428 98 117.319 98.3687 117.975 99.0251C118.631 99.6815 119 100.572 119 101.5C119 102.428 118.631 103.318 117.975 103.975C117.319 104.631 116.428 105 115.5 105H105V115.5C105 116.428 104.631 117.318 103.975 117.975C103.319 118.631 102.428 119 101.5 119C100.572 119 99.6815 118.631 99.0251 117.975C98.3688 117.318 98 116.428 98 115.5V105H87.5C86.5718 105 85.6815 104.631 85.0251 103.975C84.3688 103.318 84 102.428 84 101.5C84 100.572 84.3688 99.6815 85.0251 99.0251C85.6815 98.3687 86.5718 98 87.5 98H98V87.5C98 86.5717 98.3688 85.6815 99.0251 85.0251C99.6815 84.3687 100.572 84 101.5 84Z" fill="#011E56"/>
</svg>
