<svg width="100" height="101" viewBox="0 0 100 101" fill="none" xmlns="http://www.w3.org/2000/svg">
<ellipse cx="50" cy="50.2697" rx="50" ry="49.8201" fill="#E6EDFA"/>
<path d="M37.2031 43.4871H24.4531V30.7371" stroke="#011E56" stroke-width="2" stroke-linecap="round" stroke-linejoin="round"/>
<path d="M33.4687 67.5286C36.7378 70.7977 40.9028 73.0239 45.4371 73.9259C49.9714 74.8278 54.6714 74.3649 58.9426 72.5957C63.2138 70.8265 66.8645 67.8305 69.433 63.9865C72.0014 60.1425 73.3724 55.6231 73.3724 51C73.3724 46.3769 72.0014 41.8576 69.433 38.0136C66.8645 34.1696 63.2138 31.1735 58.9426 29.4043C54.6714 27.6351 49.9714 27.1722 45.4371 28.0742C40.9028 28.9761 36.7378 31.2023 33.4687 34.4714L24.4531 43.487" stroke="#011E56" stroke-width="2" stroke-linecap="round" stroke-linejoin="round"/>
</svg>
