<svg width="100" height="100" viewBox="0 0 100 100" fill="none" xmlns="http://www.w3.org/2000/svg">
<ellipse cx="50" cy="49.8201" rx="50" ry="49.8201" fill="#E6EDFA"/>
<path d="M75.8867 51H67.3867C66.2595 51 65.1785 51.4478 64.3815 52.2448C63.5845 53.0418 63.1367 54.1228 63.1367 55.25V65.875C63.1367 67.0022 63.5845 68.0832 64.3815 68.8802C65.1785 69.6772 66.2595 70.125 67.3867 70.125H71.6367C72.7639 70.125 73.8449 69.6772 74.6419 68.8802C75.4389 68.0832 75.8867 67.0022 75.8867 65.875V51ZM75.8867 51C75.8867 47.635 75.2207 44.3033 73.9271 41.1969C72.6335 38.0906 70.7378 35.2709 68.3494 32.9006C65.961 30.5302 63.1271 28.656 60.011 27.386C56.8949 26.1159 53.5582 25.4752 50.1933 25.5007C46.8285 25.4752 43.4918 26.1159 40.3757 27.386C37.2596 28.656 34.4257 30.5302 32.0373 32.9006C29.6489 35.2709 27.7532 38.0906 26.4596 41.1969C25.166 44.3033 24.5 47.635 24.5 51V65.875C24.5 67.0022 24.9478 68.0832 25.7448 68.8802C26.5418 69.6772 27.6228 70.125 28.75 70.125H33C34.1272 70.125 35.2082 69.6772 36.0052 68.8802C36.8022 68.0832 37.25 67.0022 37.25 65.875V55.25C37.25 54.1228 36.8022 53.0418 36.0052 52.2448C35.2082 51.4478 34.1272 51 33 51H24.5" stroke="#011E56" stroke-width="2" stroke-linecap="round" stroke-linejoin="round"/>
<path d="M75.8867 65.875V72.25C75.8867 74.5043 74.9912 76.6663 73.3971 78.2604C71.803 79.8545 69.641 80.75 67.3867 80.75H52.125" stroke="#011E56" stroke-width="2" stroke-linecap="round" stroke-linejoin="round"/>
</svg>
