<svg width="22" height="23" viewBox="0 0 22 23" fill="none" xmlns="http://www.w3.org/2000/svg">
<g clip-path="url(#clip0)">
<path fill-rule="evenodd" clip-rule="evenodd" d="M0 11.7493C0 8.83189 1.15893 6.03399 3.22183 3.97109C5.28473 1.90819 8.08262 0.749268 11 0.749268C13.9174 0.749268 16.7153 1.90819 18.7782 3.97109C20.8411 6.03399 22 8.83189 22 11.7493C22 14.6666 20.8411 17.4645 18.7782 19.5274C16.7153 21.5903 13.9174 22.7493 11 22.7493C8.08262 22.7493 5.28473 21.5903 3.22183 19.5274C1.15893 17.4645 0 14.6666 0 11.7493H0ZM10.3723 16.4573L16.7053 8.5402L15.5613 7.625L10.1611 14.3731L6.336 11.1861L5.39733 12.3125L10.3723 16.4587V16.4573Z" fill="white"/>
</g>
<defs>
<clipPath id="clip0">
<rect width="22" height="22" fill="white" transform="translate(0 0.749268)"/>
</clipPath>
</defs>
</svg>
