<svg width="100" height="100" viewBox="0 0 100 100" fill="none" xmlns="http://www.w3.org/2000/svg">
<circle cx="50" cy="50" r="50" fill="#E6EDFA"/>
<path d="M43.625 62.75C48.3194 62.75 52.125 58.9444 52.125 54.25C52.125 49.5556 48.3194 45.75 43.625 45.75C38.9306 45.75 35.125 49.5556 35.125 54.25C35.125 58.9444 38.9306 62.75 43.625 62.75Z" stroke="#011E56" stroke-width="2" stroke-linecap="round" stroke-linejoin="round"/>
<path d="M30.1816 71.2497C31.3889 68.7063 33.2929 66.5577 35.6725 65.0531C38.0521 63.5486 40.8097 62.75 43.625 62.75C46.4403 62.75 49.1979 63.5486 51.5775 65.0531C53.9571 66.5577 55.8611 68.7063 57.0684 71.2497L73.375 71.25C73.654 71.25 73.9304 71.195 74.1882 71.0883C74.446 70.9815 74.6803 70.8249 74.8776 70.6276C75.0749 70.4303 75.2314 70.196 75.3382 69.9382C75.445 69.6804 75.5 69.4041 75.5 69.125V30.875C75.5 30.3114 75.2761 29.7709 74.8776 29.3724C74.4791 28.9739 73.9386 28.75 73.375 28.75H26.625C26.0614 28.75 25.5209 28.9739 25.1224 29.3724C24.7239 29.7709 24.5 30.3114 24.5 30.875V69.1252C24.5 69.4042 24.555 69.6806 24.6618 69.9384C24.7686 70.1962 24.9251 70.4304 25.1224 70.6277C25.3197 70.825 25.554 70.9815 25.8118 71.0883C26.0696 71.1951 26.346 71.25 26.625 71.25L30.1816 71.2497Z" stroke="#011E56" stroke-width="2" stroke-linecap="round" stroke-linejoin="round"/>
<path d="M62.75 62.75H67V37.25H33V41.5" stroke="#011E56" stroke-width="2" stroke-linecap="round" stroke-linejoin="round"/>
</svg>
