<svg width="32" height="32" viewBox="0 0 32 32" fill="none" xmlns="http://www.w3.org/2000/svg">
<path d="M2.67137 29.3334L4.47403 22.7094C3.28622 20.6732 2.66216 18.3573 2.66603 16C2.66603 8.63602 8.63537 2.66669 15.9994 2.66669C23.3634 2.66669 29.3327 8.63602 29.3327 16C29.3327 23.364 23.3634 29.3334 15.9994 29.3334C13.6431 29.3372 11.3282 28.7136 9.2927 27.5267L2.67137 29.3334ZM11.1874 9.74402C11.0152 9.75471 10.8469 9.80006 10.6927 9.87735C10.5481 9.95926 10.416 10.0617 10.3007 10.1814C10.1407 10.332 10.05 10.4627 9.9527 10.5894C9.45992 11.2307 9.19485 12.0179 9.19937 12.8267C9.20203 13.48 9.3727 14.116 9.63937 14.7107C10.1847 15.9134 11.082 17.1867 12.2674 18.3667C12.5527 18.6507 12.8314 18.936 13.1314 19.2014C14.6026 20.4966 16.3557 21.4307 18.2514 21.9294L19.01 22.0454C19.2567 22.0587 19.5034 22.04 19.7514 22.028C20.1397 22.008 20.5189 21.9028 20.862 21.72C21.0366 21.6301 21.207 21.5322 21.3727 21.4267C21.3727 21.4267 21.43 21.3894 21.5394 21.3067C21.7194 21.1734 21.83 21.0787 21.9794 20.9227C22.09 20.808 22.186 20.6734 22.2594 20.52C22.3634 20.3027 22.4674 19.888 22.51 19.5427C22.542 19.2787 22.5327 19.1347 22.5287 19.0454C22.5234 18.9027 22.4047 18.7547 22.2754 18.692L21.4994 18.344C21.4994 18.344 20.3394 17.8387 19.6314 17.516C19.5567 17.4835 19.4767 17.465 19.3954 17.4614C19.3041 17.452 19.212 17.4622 19.125 17.4915C19.0381 17.5207 18.9584 17.5681 18.8914 17.6307V17.628C18.8847 17.628 18.7954 17.704 17.8314 18.872C17.776 18.9464 17.6998 19.0026 17.6124 19.0334C17.5251 19.0643 17.4305 19.0685 17.3407 19.0454C17.2538 19.0221 17.1687 18.9927 17.086 18.9574C16.9207 18.888 16.8634 18.8614 16.75 18.812L16.7434 18.8094C15.9806 18.4763 15.2743 18.0265 14.65 17.476C14.482 17.3294 14.326 17.1694 14.166 17.0147C13.6415 16.5123 13.1843 15.944 12.806 15.324L12.7274 15.1974C12.6709 15.1122 12.6252 15.0204 12.5914 14.924C12.5407 14.728 12.6727 14.5707 12.6727 14.5707C12.6727 14.5707 12.9967 14.216 13.1474 14.024C13.2728 13.8644 13.3899 13.6984 13.498 13.5267C13.6554 13.2734 13.7047 13.0134 13.622 12.812C13.2487 11.9 12.862 10.992 12.4647 10.0907C12.386 9.91202 12.1527 9.78402 11.9407 9.75869C11.8687 9.75069 11.7967 9.74269 11.7247 9.73735C11.5456 9.72846 11.3662 9.73024 11.1874 9.74269V9.74402Z" fill="#011E56"/>
</svg>
